<?xml version="1.0" encoding="UTF-8" standalone="no"?>
<!-- Created with Inkscape (http://www.inkscape.org/) -->

<svg
   xmlns:dc="http://purl.org/dc/elements/1.1/"
   xmlns:cc="http://creativecommons.org/ns#"
   xmlns:rdf="http://www.w3.org/1999/02/22-rdf-syntax-ns#"
   xmlns:svg="http://www.w3.org/2000/svg"
   xmlns="http://www.w3.org/2000/svg"
   xmlns:xlink="http://www.w3.org/1999/xlink"
   xmlns:sodipodi="http://sodipodi.sourceforge.net/DTD/sodipodi-0.dtd"
   xmlns:inkscape="http://www.inkscape.org/namespaces/inkscape"
   width="60"
   height="60"
   viewBox="0 0 60.000001 60.000001"
   id="svg6148"
   version="1.1"
   inkscape:version="0.91 r"
   sodipodi:docname="white_knight.svg">
  <defs
     id="defs6150">
    <linearGradient
       id="linearGradient4374"
       spreadMethod="pad"
       gradientTransform="matrix(50.307037,0,0,-50.307037,722.2793,529.97803)"
       gradientUnits="userSpaceOnUse"
       y2="0"
       x2="1"
       y1="0"
       x1="0">
      <stop
         id="stop4376"
         offset="0"
         style="stop-opacity:1;stop-color:#ffffff" />
      <stop
         id="stop4378"
         offset="0.04984933"
         style="stop-opacity:1;stop-color:#ffffff" />
      <stop
         id="stop4380"
         offset="0.921951"
         style="stop-opacity:1;stop-color:#b9b9b9" />
      <stop
         id="stop4382"
         offset="0.92209046"
         style="stop-opacity:1;stop-color:#b9b9b9" />
      <stop
         id="stop4384"
         offset="1"
         style="stop-opacity:1;stop-color:#999999" />
    </linearGradient>
    <clipPath
       id="clipPath4296"
       clipPathUnits="userSpaceOnUse">
      <path
         inkscape:connector-curvature="0"
         id="path4298"
         d="M 0,800 800,800 800,0 0,0 0,800 Z" />
    </clipPath>
    <clipPath
       id="clipPath4304"
       clipPathUnits="userSpaceOnUse">
      <path
         inkscape:connector-curvature="0"
         id="path4306"
         d="m 727.854,545.632 27.417,0 0,-6.303 -27.417,0 0,6.303 z" />
    </clipPath>
    <clipPath
       id="clipPath4308"
       clipPathUnits="userSpaceOnUse">
      <path
         inkscape:connector-curvature="0"
         id="path4310"
         d="m 727.854,539.329 0,3.9 c 0,1.325 1.078,2.403 2.408,2.403 l 25.009,0 c 0,0 -14.701,-0.51 -20.35,-2.434 -5.648,-1.925 -7.067,-3.869 -7.067,-3.869" />
    </clipPath>
    <mask
       id="mask4324"
       height="1"
       width="1"
       y="0"
       x="0"
       maskUnits="userSpaceOnUse">
      <g
         id="g4326">
        <g
           id="g4328">
          <g
             id="g4330">
            <g
               id="g4332">
              <path
                 inkscape:connector-curvature="0"
                 id="path4334"
                 style="fill:url(#linearGradient4316);stroke:none"
                 d="m -32768,32767 65535,0 0,-65535 -65535,0 0,65535 z" />
            </g>
          </g>
        </g>
      </g>
    </mask>
    <linearGradient
       id="linearGradient4316"
       spreadMethod="pad"
       gradientTransform="matrix(20.758091,0,0,-20.758091,725.48047,542.48047)"
       gradientUnits="userSpaceOnUse"
       y2="0"
       x2="1"
       y1="0"
       x1="0">
      <stop
         id="stop4318"
         offset="0"
         style="stop-opacity:1;stop-color:#ffffff" />
      <stop
         id="stop4320"
         offset="0.05406939"
         style="stop-opacity:1;stop-color:#ffffff" />
      <stop
         id="stop4322"
         offset="1"
         style="stop-opacity:0;stop-color:#ffffff" />
    </linearGradient>
    <linearGradient
       id="linearGradient4278"
       spreadMethod="pad"
       gradientTransform="matrix(42.939579,0,0,-42.939579,726.11719,541.31885)"
       gradientUnits="userSpaceOnUse"
       y2="0"
       x2="1"
       y1="0"
       x1="0">
      <stop
         id="stop4280"
         offset="0"
         style="stop-opacity:1;stop-color:#ffffff" />
      <stop
         id="stop4282"
         offset="0.04984933"
         style="stop-opacity:1;stop-color:#ffffff" />
      <stop
         id="stop4284"
         offset="0.921951"
         style="stop-opacity:1;stop-color:#b9b9b9" />
      <stop
         id="stop4286"
         offset="0.92209046"
         style="stop-opacity:1;stop-color:#b9b9b9" />
      <stop
         id="stop4288"
         offset="1"
         style="stop-opacity:1;stop-color:#999999" />
    </linearGradient>
    <clipPath
       id="clipPath4200"
       clipPathUnits="userSpaceOnUse">
      <path
         inkscape:connector-curvature="0"
         id="path4202"
         d="M 0,800 800,800 800,0 0,0 0,800 Z" />
    </clipPath>
    <clipPath
       id="clipPath4208"
       clipPathUnits="userSpaceOnUse">
      <path
         inkscape:connector-curvature="0"
         id="path4210"
         d="m 730.464,552.396 22.255,0 0,-5.504 -22.255,0 0,5.504 z" />
    </clipPath>
    <clipPath
       id="clipPath4212"
       clipPathUnits="userSpaceOnUse">
      <path
         inkscape:connector-curvature="0"
         id="path4214"
         d="m 730.464,546.892 0,3.412 c 0,1.153 0.938,2.092 2.103,2.092 l 20.152,0 c 0,0 -11.149,-0.44 -16.081,-2.125 -4.937,-1.678 -6.174,-3.379 -6.174,-3.379" />
    </clipPath>
    <mask
       id="mask4228"
       height="1"
       width="1"
       y="0"
       x="0"
       maskUnits="userSpaceOnUse">
      <g
         id="g4230">
        <g
           id="g4232">
          <g
             id="g4234">
            <g
               id="g4236">
              <path
                 inkscape:connector-curvature="0"
                 id="path4238"
                 style="fill:url(#linearGradient4220);stroke:none"
                 d="m -32768,32767 65535,0 0,-65535 -65535,0 0,65535 z" />
            </g>
          </g>
        </g>
      </g>
    </mask>
    <linearGradient
       id="linearGradient4220"
       spreadMethod="pad"
       gradientTransform="matrix(15.700887,0,0,-15.700887,728.58594,549.64404)"
       gradientUnits="userSpaceOnUse"
       y2="0"
       x2="1"
       y1="0"
       x1="0">
      <stop
         id="stop4222"
         offset="0"
         style="stop-opacity:1;stop-color:#ffffff" />
      <stop
         id="stop4224"
         offset="0.05406939"
         style="stop-opacity:1;stop-color:#ffffff" />
      <stop
         id="stop4226"
         offset="1"
         style="stop-opacity:0;stop-color:#ffffff" />
    </linearGradient>
    <linearGradient
       id="linearGradient4182"
       spreadMethod="pad"
       gradientTransform="matrix(37.510014,0,0,-37.510014,728.94629,548.63135)"
       gradientUnits="userSpaceOnUse"
       y2="0"
       x2="1"
       y1="0"
       x1="0">
      <stop
         id="stop4184"
         offset="0"
         style="stop-opacity:1;stop-color:#ffffff" />
      <stop
         id="stop4186"
         offset="0.04984933"
         style="stop-opacity:1;stop-color:#ffffff" />
      <stop
         id="stop4188"
         offset="0.921951"
         style="stop-opacity:1;stop-color:#b9b9b9" />
      <stop
         id="stop4190"
         offset="0.92209046"
         style="stop-opacity:1;stop-color:#b9b9b9" />
      <stop
         id="stop4192"
         offset="1"
         style="stop-opacity:1;stop-color:#999999" />
    </linearGradient>
    <linearGradient
       id="linearGradient4154"
       spreadMethod="pad"
       gradientTransform="matrix(25.693651,0,0,-25.693651,732.65723,600.66064)"
       gradientUnits="userSpaceOnUse"
       y2="0"
       x2="1"
       y1="0"
       x1="0">
      <stop
         id="stop4156"
         offset="0"
         style="stop-opacity:1;stop-color:#ffffff" />
      <stop
         id="stop4158"
         offset="0.160976"
         style="stop-opacity:1;stop-color:#ffffff" />
      <stop
         id="stop4160"
         offset="0.20053895"
         style="stop-opacity:1;stop-color:#ffffff" />
      <stop
         id="stop4162"
         offset="0.892683"
         style="stop-opacity:1;stop-color:#b9b9b9" />
      <stop
         id="stop4164"
         offset="0.89287475"
         style="stop-opacity:1;stop-color:#b9b9b9" />
      <stop
         id="stop4166"
         offset="1"
         style="stop-opacity:1;stop-color:#a3a3a3" />
    </linearGradient>
    <clipPath
       id="clipPath4076"
       clipPathUnits="userSpaceOnUse">
      <path
         inkscape:connector-curvature="0"
         id="path4078"
         d="M 0,800 800,800 800,0 0,0 0,800 Z" />
    </clipPath>
    <clipPath
       id="clipPath4084"
       clipPathUnits="userSpaceOnUse">
      <path
         inkscape:connector-curvature="0"
         id="path4086"
         d="m 732.858,557.935 19.861,0 0,-4.773 -19.861,0 0,4.773 z" />
    </clipPath>
    <clipPath
       id="clipPath4088"
       clipPathUnits="userSpaceOnUse">
      <path
         inkscape:connector-curvature="0"
         id="path4090"
         d="m 732.858,553.162 0,2.955 c 0,0.999 0.819,1.818 1.824,1.818 l 18.037,0 c 0,0 -10.23,-0.383 -14.502,-1.844 -4.284,-1.456 -5.359,-2.929 -5.359,-2.929" />
    </clipPath>
    <mask
       id="mask4104"
       height="1"
       width="1"
       y="0"
       x="0"
       maskUnits="userSpaceOnUse">
      <g
         id="g4106">
        <g
           id="g4108">
          <g
             id="g4110">
            <g
               id="g4112">
              <path
                 inkscape:connector-curvature="0"
                 id="path4114"
                 style="fill:url(#linearGradient4096);stroke:none"
                 d="m -32768,32767 65535,0 0,-65535 -65535,0 0,65535 z" />
            </g>
          </g>
        </g>
      </g>
    </mask>
    <linearGradient
       id="linearGradient4096"
       spreadMethod="pad"
       gradientTransform="matrix(15.048725,0,0,-15.048725,731.08496,555.54834)"
       gradientUnits="userSpaceOnUse"
       y2="0"
       x2="1"
       y1="0"
       x1="0">
      <stop
         id="stop4098"
         offset="0"
         style="stop-opacity:1;stop-color:#ffffff" />
      <stop
         id="stop4100"
         offset="0.05406939"
         style="stop-opacity:1;stop-color:#ffffff" />
      <stop
         id="stop4102"
         offset="1"
         style="stop-opacity:0;stop-color:#ffffff" />
    </linearGradient>
    <linearGradient
       id="linearGradient4058"
       spreadMethod="pad"
       gradientTransform="matrix(32.525547,0,0,-32.525547,731.54199,554.66895)"
       gradientUnits="userSpaceOnUse"
       y2="0"
       x2="1"
       y1="0"
       x1="0">
      <stop
         id="stop4060"
         offset="0"
         style="stop-opacity:1;stop-color:#ffffff" />
      <stop
         id="stop4062"
         offset="0.04984933"
         style="stop-opacity:1;stop-color:#ffffff" />
      <stop
         id="stop4064"
         offset="0.921951"
         style="stop-opacity:1;stop-color:#b9b9b9" />
      <stop
         id="stop4066"
         offset="0.92209046"
         style="stop-opacity:1;stop-color:#b9b9b9" />
      <stop
         id="stop4068"
         offset="1"
         style="stop-opacity:1;stop-color:#999999" />
    </linearGradient>
    <linearGradient
       id="linearGradient4030"
       spreadMethod="pad"
       gradientTransform="matrix(23.724337,0,0,-23.724337,733.86621,576.06787)"
       gradientUnits="userSpaceOnUse"
       y2="0"
       x2="1"
       y1="0"
       x1="0">
      <stop
         id="stop4032"
         offset="0"
         style="stop-opacity:1;stop-color:#ffffff" />
      <stop
         id="stop4034"
         offset="0.160976"
         style="stop-opacity:1;stop-color:#ffffff" />
      <stop
         id="stop4036"
         offset="0.20053895"
         style="stop-opacity:1;stop-color:#ffffff" />
      <stop
         id="stop4038"
         offset="0.892683"
         style="stop-opacity:1;stop-color:#b9b9b9" />
      <stop
         id="stop4040"
         offset="0.89287475"
         style="stop-opacity:1;stop-color:#b9b9b9" />
      <stop
         id="stop4042"
         offset="1"
         style="stop-opacity:1;stop-color:#a3a3a3" />
    </linearGradient>
    <linearGradient
       id="linearGradient4002"
       spreadMethod="pad"
       gradientTransform="matrix(13.607021,-20.920824,-20.920824,-13.607021,740.44043,622.12256)"
       gradientUnits="userSpaceOnUse"
       y2="0"
       x2="1"
       y1="0"
       x1="0">
      <stop
         id="stop4004"
         offset="0"
         style="stop-opacity:1;stop-color:#ffffff" />
      <stop
         id="stop4006"
         offset="0.160976"
         style="stop-opacity:1;stop-color:#ffffff" />
      <stop
         id="stop4008"
         offset="0.20053895"
         style="stop-opacity:1;stop-color:#ffffff" />
      <stop
         id="stop4010"
         offset="0.892683"
         style="stop-opacity:1;stop-color:#b9b9b9" />
      <stop
         id="stop4012"
         offset="0.89287475"
         style="stop-opacity:1;stop-color:#b9b9b9" />
      <stop
         id="stop4014"
         offset="1"
         style="stop-opacity:1;stop-color:#a3a3a3" />
    </linearGradient>
    <linearGradient
       id="linearGradient6406"
       spreadMethod="pad"
       gradientTransform="matrix(55.259998,0,0,-55.259998,91.725098,531.00098)"
       gradientUnits="userSpaceOnUse"
       y2="0"
       x2="1"
       y1="0"
       x1="0">
      <stop
         id="stop6408"
         offset="0"
         style="stop-opacity:1;stop-color:#ffffff" />
      <stop
         id="stop6410"
         offset="0.04984933"
         style="stop-opacity:1;stop-color:#ffffff" />
      <stop
         id="stop6412"
         offset="0.921951"
         style="stop-opacity:1;stop-color:#b9b9b9" />
      <stop
         id="stop6414"
         offset="0.92209046"
         style="stop-opacity:1;stop-color:#b9b9b9" />
      <stop
         id="stop6416"
         offset="1"
         style="stop-opacity:1;stop-color:#999999" />
    </linearGradient>
    <clipPath
       id="clipPath6328"
       clipPathUnits="userSpaceOnUse">
      <path
         inkscape:connector-curvature="0"
         id="path6330"
         d="M 0,800 800,800 800,0 0,0 0,800 Z" />
    </clipPath>
    <clipPath
       id="clipPath6336"
       clipPathUnits="userSpaceOnUse">
      <path
         inkscape:connector-curvature="0"
         id="path6338"
         d="m 97.8486,548.195 30.1154,0 0,-6.923 -30.1154,0 0,6.923 z" />
    </clipPath>
    <clipPath
       id="clipPath6340"
       clipPathUnits="userSpaceOnUse">
      <path
         inkscape:connector-curvature="0"
         id="path6342"
         d="m 97.849,541.272 0,4.285 c 0,1.454 1.184,2.638 2.644,2.638 l 27.471,0 c 0,0 -16.146,-0.56 -22.351,-2.674 -6.205,-2.113 -7.764,-4.249 -7.764,-4.249" />
    </clipPath>
    <mask
       id="mask6356"
       height="1"
       width="1"
       y="0"
       x="0"
       maskUnits="userSpaceOnUse">
      <g
         id="g6358">
        <g
           id="g6360">
          <g
             id="g6362">
            <g
               id="g6364">
              <path
                 inkscape:connector-curvature="0"
                 id="path6366"
                 style="fill:url(#linearGradient6348);stroke:none"
                 d="m -32768,32767 65535,0 0,-65535 -65535,0 0,65535 z" />
            </g>
          </g>
        </g>
      </g>
    </mask>
    <linearGradient
       id="linearGradient6348"
       spreadMethod="pad"
       gradientTransform="matrix(22.802179,0,0,-22.802179,95.240234,544.73389)"
       gradientUnits="userSpaceOnUse"
       y2="0"
       x2="1"
       y1="0"
       x1="0">
      <stop
         id="stop6350"
         offset="0"
         style="stop-opacity:1;stop-color:#ffffff" />
      <stop
         id="stop6352"
         offset="0.05406939"
         style="stop-opacity:1;stop-color:#ffffff" />
      <stop
         id="stop6354"
         offset="1"
         style="stop-opacity:0;stop-color:#ffffff" />
    </linearGradient>
    <linearGradient
       id="linearGradient6310"
       spreadMethod="pad"
       gradientTransform="matrix(47.169006,0,0,-47.169006,95.94043,543.45801)"
       gradientUnits="userSpaceOnUse"
       y2="0"
       x2="1"
       y1="0"
       x1="0">
      <stop
         id="stop6312"
         offset="0"
         style="stop-opacity:1;stop-color:#ffffff" />
      <stop
         id="stop6314"
         offset="0.04984933"
         style="stop-opacity:1;stop-color:#ffffff" />
      <stop
         id="stop6316"
         offset="0.921951"
         style="stop-opacity:1;stop-color:#b9b9b9" />
      <stop
         id="stop6318"
         offset="0.92209046"
         style="stop-opacity:1;stop-color:#b9b9b9" />
      <stop
         id="stop6320"
         offset="1"
         style="stop-opacity:1;stop-color:#999999" />
    </linearGradient>
    <clipPath
       id="clipPath6232"
       clipPathUnits="userSpaceOnUse">
      <path
         inkscape:connector-curvature="0"
         id="path6234"
         d="M 0,800 800,800 800,0 0,0 0,800 Z" />
    </clipPath>
    <clipPath
       id="clipPath6240"
       clipPathUnits="userSpaceOnUse">
      <path
         inkscape:connector-curvature="0"
         id="path6242"
         d="m 100.715,555.626 24.448,0 0,-6.047 -24.448,0 0,6.047 z" />
    </clipPath>
    <clipPath
       id="clipPath6244"
       clipPathUnits="userSpaceOnUse">
      <path
         inkscape:connector-curvature="0"
         id="path6246"
         d="m 100.715,549.579 0,3.747 c 0,1.268 1.034,2.3 2.312,2.3 l 22.136,0 c 0,0 -12.246,-0.484 -17.663,-2.335 -5.424,-1.845 -6.785,-3.712 -6.785,-3.712" />
    </clipPath>
    <mask
       id="mask6260"
       height="1"
       width="1"
       y="0"
       x="0"
       maskUnits="userSpaceOnUse">
      <g
         id="g6262">
        <g
           id="g6264">
          <g
             id="g6266">
            <g
               id="g6268">
              <path
                 inkscape:connector-curvature="0"
                 id="path6270"
                 style="fill:url(#linearGradient6252);stroke:none"
                 d="m -32768,32767 65535,0 0,-65535 -65535,0 0,65535 z" />
            </g>
          </g>
        </g>
      </g>
    </mask>
    <linearGradient
       id="linearGradient6252"
       spreadMethod="pad"
       gradientTransform="matrix(17.248308,0,0,-17.248308,98.651855,552.60254)"
       gradientUnits="userSpaceOnUse"
       y2="0"
       x2="1"
       y1="0"
       x1="0">
      <stop
         id="stop6254"
         offset="0"
         style="stop-opacity:1;stop-color:#ffffff" />
      <stop
         id="stop6256"
         offset="0.05406939"
         style="stop-opacity:1;stop-color:#ffffff" />
      <stop
         id="stop6258"
         offset="1"
         style="stop-opacity:0;stop-color:#ffffff" />
    </linearGradient>
    <linearGradient
       id="linearGradient6214"
       spreadMethod="pad"
       gradientTransform="matrix(41.203907,0,0,-41.203907,99.047852,551.49023)"
       gradientUnits="userSpaceOnUse"
       y2="0"
       x2="1"
       y1="0"
       x1="0">
      <stop
         id="stop6216"
         offset="0"
         style="stop-opacity:1;stop-color:#ffffff" />
      <stop
         id="stop6218"
         offset="0.04984933"
         style="stop-opacity:1;stop-color:#ffffff" />
      <stop
         id="stop6220"
         offset="0.921951"
         style="stop-opacity:1;stop-color:#b9b9b9" />
      <stop
         id="stop6222"
         offset="0.92209046"
         style="stop-opacity:1;stop-color:#b9b9b9" />
      <stop
         id="stop6224"
         offset="1"
         style="stop-opacity:1;stop-color:#999999" />
    </linearGradient>
    <linearGradient
       id="linearGradient6186"
       spreadMethod="pad"
       gradientTransform="matrix(28.221504,0,0,-28.221504,103.12549,608.64062)"
       gradientUnits="userSpaceOnUse"
       y2="0"
       x2="1"
       y1="0"
       x1="0">
      <stop
         id="stop6188"
         offset="0"
         style="stop-opacity:1;stop-color:#ffffff" />
      <stop
         id="stop6190"
         offset="0.160976"
         style="stop-opacity:1;stop-color:#ffffff" />
      <stop
         id="stop6192"
         offset="0.20053895"
         style="stop-opacity:1;stop-color:#ffffff" />
      <stop
         id="stop6194"
         offset="0.892683"
         style="stop-opacity:1;stop-color:#b9b9b9" />
      <stop
         id="stop6196"
         offset="0.89287475"
         style="stop-opacity:1;stop-color:#b9b9b9" />
      <stop
         id="stop6198"
         offset="1"
         style="stop-opacity:1;stop-color:#a3a3a3" />
    </linearGradient>
    <clipPath
       id="clipPath6108"
       clipPathUnits="userSpaceOnUse">
      <path
         inkscape:connector-curvature="0"
         id="path6110"
         d="M 0,800 800,800 800,0 0,0 0,800 Z" />
    </clipPath>
    <clipPath
       id="clipPath6116"
       clipPathUnits="userSpaceOnUse">
      <path
         inkscape:connector-curvature="0"
         id="path6118"
         d="m 103.349,561.71 21.814,0 0,-5.243 -21.814,0 0,5.243 z" />
    </clipPath>
    <clipPath
       id="clipPath6120"
       clipPathUnits="userSpaceOnUse">
      <path
         inkscape:connector-curvature="0"
         id="path6122"
         d="m 103.349,556.467 0,3.246 c 0,1.097 0.898,1.997 2,1.997 l 19.814,0 c 0,0 -11.238,-0.422 -15.931,-2.026 -4.706,-1.599 -5.883,-3.217 -5.883,-3.217" />
    </clipPath>
    <mask
       id="mask6136"
       height="1"
       width="1"
       y="0"
       x="0"
       maskUnits="userSpaceOnUse">
      <g
         id="g6138">
        <g
           id="g6140">
          <g
             id="g6142">
            <g
               id="g6144">
              <path
                 inkscape:connector-curvature="0"
                 id="path6146"
                 style="fill:url(#linearGradient6128);stroke:none"
                 d="m -32768,32767 65535,0 0,-65535 -65535,0 0,65535 z" />
            </g>
          </g>
        </g>
      </g>
    </mask>
    <linearGradient
       id="linearGradient6128"
       spreadMethod="pad"
       gradientTransform="matrix(16.5294,0,0,-16.5294,101.40137,559.08838)"
       gradientUnits="userSpaceOnUse"
       y2="0"
       x2="1"
       y1="0"
       x1="0">
      <stop
         id="stop6130"
         offset="0"
         style="stop-opacity:1;stop-color:#ffffff" />
      <stop
         id="stop6132"
         offset="0.05406939"
         style="stop-opacity:1;stop-color:#ffffff" />
      <stop
         id="stop6134"
         offset="1"
         style="stop-opacity:0;stop-color:#ffffff" />
    </linearGradient>
    <linearGradient
       id="linearGradient6090"
       spreadMethod="pad"
       gradientTransform="matrix(35.723534,0,0,-35.723534,101.90332,558.12256)"
       gradientUnits="userSpaceOnUse"
       y2="0"
       x2="1"
       y1="0"
       x1="0">
      <stop
         id="stop6092"
         offset="0"
         style="stop-opacity:1;stop-color:#ffffff" />
      <stop
         id="stop6094"
         offset="0.04984933"
         style="stop-opacity:1;stop-color:#ffffff" />
      <stop
         id="stop6096"
         offset="0.921951"
         style="stop-opacity:1;stop-color:#b9b9b9" />
      <stop
         id="stop6098"
         offset="0.92209046"
         style="stop-opacity:1;stop-color:#b9b9b9" />
      <stop
         id="stop6100"
         offset="1"
         style="stop-opacity:1;stop-color:#999999" />
    </linearGradient>
    <linearGradient
       id="linearGradient6062"
       spreadMethod="pad"
       gradientTransform="matrix(26.058372,0,0,-26.058372,104.45459,581.62695)"
       gradientUnits="userSpaceOnUse"
       y2="0"
       x2="1"
       y1="0"
       x1="0">
      <stop
         id="stop6064"
         offset="0"
         style="stop-opacity:1;stop-color:#ffffff" />
      <stop
         id="stop6066"
         offset="0.160976"
         style="stop-opacity:1;stop-color:#ffffff" />
      <stop
         id="stop6068"
         offset="0.20053895"
         style="stop-opacity:1;stop-color:#ffffff" />
      <stop
         id="stop6070"
         offset="0.892683"
         style="stop-opacity:1;stop-color:#b9b9b9" />
      <stop
         id="stop6072"
         offset="0.89287475"
         style="stop-opacity:1;stop-color:#b9b9b9" />
      <stop
         id="stop6074"
         offset="1"
         style="stop-opacity:1;stop-color:#a3a3a3" />
    </linearGradient>
    <linearGradient
       id="linearGradient6036"
       spreadMethod="pad"
       gradientTransform="matrix(43.113769,0,0,-43.113769,98.959473,619.28369)"
       gradientUnits="userSpaceOnUse"
       y2="0"
       x2="1"
       y1="0"
       x1="0">
      <stop
         id="stop6038"
         offset="0"
         style="stop-opacity:1;stop-color:#ffffff" />
      <stop
         id="stop6040"
         offset="0.04984933"
         style="stop-opacity:1;stop-color:#ffffff" />
      <stop
         id="stop6042"
         offset="0.921951"
         style="stop-opacity:1;stop-color:#b9b9b9" />
      <stop
         id="stop6044"
         offset="0.92209046"
         style="stop-opacity:1;stop-color:#b9b9b9" />
      <stop
         id="stop6046"
         offset="1"
         style="stop-opacity:1;stop-color:#999999" />
    </linearGradient>
    <linearGradient
       id="linearGradient6858"
       spreadMethod="pad"
       gradientTransform="matrix(61.444599,0,0,-61.444599,170.92236,532.27783)"
       gradientUnits="userSpaceOnUse"
       y2="0"
       x2="1"
       y1="0"
       x1="0">
      <stop
         id="stop6860"
         offset="0"
         style="stop-opacity:1;stop-color:#ffffff" />
      <stop
         id="stop6862"
         offset="0.04984933"
         style="stop-opacity:1;stop-color:#ffffff" />
      <stop
         id="stop6864"
         offset="0.921951"
         style="stop-opacity:1;stop-color:#b9b9b9" />
      <stop
         id="stop6866"
         offset="0.92209046"
         style="stop-opacity:1;stop-color:#b9b9b9" />
      <stop
         id="stop6868"
         offset="1"
         style="stop-opacity:1;stop-color:#999999" />
    </linearGradient>
    <clipPath
       id="clipPath6780"
       clipPathUnits="userSpaceOnUse">
      <path
         inkscape:connector-curvature="0"
         id="path6782"
         d="M 0,800 800,800 800,0 0,0 0,800 Z" />
    </clipPath>
    <clipPath
       id="clipPath6788"
       clipPathUnits="userSpaceOnUse">
      <path
         inkscape:connector-curvature="0"
         id="path6790"
         d="m 177.732,551.396 33.486,0 0,-7.698 -33.486,0 0,7.698 z" />
    </clipPath>
    <clipPath
       id="clipPath6792"
       clipPathUnits="userSpaceOnUse">
      <path
         inkscape:connector-curvature="0"
         id="path6794"
         d="m 177.732,543.698 0,4.765 c 0,1.615 1.316,2.933 2.939,2.933 l 30.547,0 c 0,0 -17.954,-0.624 -24.853,-2.973 -6.9,-2.349 -8.633,-4.725 -8.633,-4.725" />
    </clipPath>
    <mask
       id="mask6808"
       height="1"
       width="1"
       y="0"
       x="0"
       maskUnits="userSpaceOnUse">
      <g
         id="g6810">
        <g
           id="g6812">
          <g
             id="g6814">
            <g
               id="g6816">
              <path
                 inkscape:connector-curvature="0"
                 id="path6818"
                 style="fill:url(#linearGradient6800);stroke:none"
                 d="m -32768,32767 65535,0 0,-65535 -65535,0 0,65535 z" />
            </g>
          </g>
        </g>
      </g>
    </mask>
    <linearGradient
       id="linearGradient6800"
       spreadMethod="pad"
       gradientTransform="matrix(25.35387,0,0,-25.35387,174.83203,547.54736)"
       gradientUnits="userSpaceOnUse"
       y2="0"
       x2="1"
       y1="0"
       x1="0">
      <stop
         id="stop6802"
         offset="0"
         style="stop-opacity:1;stop-color:#ffffff" />
      <stop
         id="stop6804"
         offset="0.05406939"
         style="stop-opacity:1;stop-color:#ffffff" />
      <stop
         id="stop6806"
         offset="1"
         style="stop-opacity:0;stop-color:#ffffff" />
    </linearGradient>
    <linearGradient
       inkscape:collect="always"
       xlink:href="#linearGradient6800"
       id="linearGradient18161"
       gradientUnits="userSpaceOnUse"
       gradientTransform="matrix(25.35387,0,0,-25.35387,174.83203,547.54736)"
       spreadMethod="pad"
       x1="0"
       y1="0"
       x2="1"
       y2="0" />
    <linearGradient
       id="linearGradient6762"
       spreadMethod="pad"
       gradientTransform="matrix(52.447662,0,0,-52.447662,175.60986,546.12891)"
       gradientUnits="userSpaceOnUse"
       y2="0"
       x2="1"
       y1="0"
       x1="0">
      <stop
         id="stop6764"
         offset="0"
         style="stop-opacity:1;stop-color:#ffffff" />
      <stop
         id="stop6766"
         offset="0.04984933"
         style="stop-opacity:1;stop-color:#ffffff" />
      <stop
         id="stop6768"
         offset="0.921951"
         style="stop-opacity:1;stop-color:#b9b9b9" />
      <stop
         id="stop6770"
         offset="0.92209046"
         style="stop-opacity:1;stop-color:#b9b9b9" />
      <stop
         id="stop6772"
         offset="1"
         style="stop-opacity:1;stop-color:#999999" />
    </linearGradient>
    <clipPath
       id="clipPath6684"
       clipPathUnits="userSpaceOnUse">
      <path
         inkscape:connector-curvature="0"
         id="path6686"
         d="M 0,800 800,800 800,0 0,0 0,800 Z" />
    </clipPath>
    <clipPath
       id="clipPath6692"
       clipPathUnits="userSpaceOnUse">
      <path
         inkscape:connector-curvature="0"
         id="path6694"
         d="m 180.919,559.659 27.184,0 0,-6.724 -27.184,0 0,6.724 z" />
    </clipPath>
    <clipPath
       id="clipPath6696"
       clipPathUnits="userSpaceOnUse">
      <path
         inkscape:connector-curvature="0"
         id="path6698"
         d="m 180.919,552.935 0,4.167 c 0,1.408 1.148,2.557 2.571,2.557 l 24.613,0 c 0,0 -13.618,-0.539 -19.641,-2.596 -6.031,-2.051 -7.543,-4.128 -7.543,-4.128" />
    </clipPath>
    <mask
       id="mask6712"
       height="1"
       width="1"
       y="0"
       x="0"
       maskUnits="userSpaceOnUse">
      <g
         id="g6714">
        <g
           id="g6716">
          <g
             id="g6718">
            <g
               id="g6720">
              <path
                 inkscape:connector-curvature="0"
                 id="path6722"
                 style="fill:url(#linearGradient6704);stroke:none"
                 d="m -32768,32767 65535,0 0,-65535 -65535,0 0,65535 z" />
            </g>
          </g>
        </g>
      </g>
    </mask>
    <linearGradient
       id="linearGradient6704"
       spreadMethod="pad"
       gradientTransform="matrix(19.177763,0,0,-19.177763,178.62549,556.29688)"
       gradientUnits="userSpaceOnUse"
       y2="0"
       x2="1"
       y1="0"
       x1="0">
      <stop
         id="stop6706"
         offset="0"
         style="stop-opacity:1;stop-color:#ffffff" />
      <stop
         id="stop6708"
         offset="0.05406939"
         style="stop-opacity:1;stop-color:#ffffff" />
      <stop
         id="stop6710"
         offset="1"
         style="stop-opacity:0;stop-color:#ffffff" />
    </linearGradient>
    <linearGradient
       inkscape:collect="always"
       xlink:href="#linearGradient6704"
       id="linearGradient18159"
       gradientUnits="userSpaceOnUse"
       gradientTransform="matrix(19.177763,0,0,-19.177763,178.62549,556.29688)"
       spreadMethod="pad"
       x1="0"
       y1="0"
       x2="1"
       y2="0" />
    <linearGradient
       id="linearGradient6666"
       spreadMethod="pad"
       gradientTransform="matrix(45.813904,0,0,-45.813904,179.06592,555.06055)"
       gradientUnits="userSpaceOnUse"
       y2="0"
       x2="1"
       y1="0"
       x1="0">
      <stop
         id="stop6668"
         offset="0"
         style="stop-opacity:1;stop-color:#ffffff" />
      <stop
         id="stop6670"
         offset="0.04984933"
         style="stop-opacity:1;stop-color:#ffffff" />
      <stop
         id="stop6672"
         offset="0.921951"
         style="stop-opacity:1;stop-color:#b9b9b9" />
      <stop
         id="stop6674"
         offset="0.92209046"
         style="stop-opacity:1;stop-color:#b9b9b9" />
      <stop
         id="stop6676"
         offset="1"
         style="stop-opacity:1;stop-color:#999999" />
    </linearGradient>
    <clipPath
       id="clipPath6588"
       clipPathUnits="userSpaceOnUse">
      <path
         inkscape:connector-curvature="0"
         id="path6590"
         d="M 0,800 800,800 800,0 0,0 0,800 Z" />
    </clipPath>
    <clipPath
       id="clipPath6596"
       clipPathUnits="userSpaceOnUse">
      <path
         inkscape:connector-curvature="0"
         id="path6598"
         d="m 183.846,566.423 24.257,0 0,-5.829 -24.257,0 0,5.829 z" />
    </clipPath>
    <clipPath
       id="clipPath6600"
       clipPathUnits="userSpaceOnUse">
      <path
         inkscape:connector-curvature="0"
         id="path6602"
         d="m 183.846,560.594 0,3.609 c 0,1.22 1,2.22 2.227,2.22 l 22.03,0 c 0,0 -12.496,-0.468 -17.714,-2.252 -5.231,-1.778 -6.543,-3.577 -6.543,-3.577" />
    </clipPath>
    <mask
       id="mask6616"
       height="1"
       width="1"
       y="0"
       x="0"
       maskUnits="userSpaceOnUse">
      <g
         id="g6618">
        <g
           id="g6620">
          <g
             id="g6622">
            <g
               id="g6624">
              <path
                 inkscape:connector-curvature="0"
                 id="path6626"
                 style="fill:url(#linearGradient6608);stroke:none"
                 d="m -32768,32767 65535,0 0,-65535 -65535,0 0,65535 z" />
            </g>
          </g>
        </g>
      </g>
    </mask>
    <linearGradient
       id="linearGradient6608"
       spreadMethod="pad"
       gradientTransform="matrix(18.37969,0,0,-18.37969,181.68066,563.5083)"
       gradientUnits="userSpaceOnUse"
       y2="0"
       x2="1"
       y1="0"
       x1="0">
      <stop
         id="stop6610"
         offset="0"
         style="stop-opacity:1;stop-color:#ffffff" />
      <stop
         id="stop6612"
         offset="0.05406939"
         style="stop-opacity:1;stop-color:#ffffff" />
      <stop
         id="stop6614"
         offset="1"
         style="stop-opacity:0;stop-color:#ffffff" />
    </linearGradient>
    <linearGradient
       inkscape:collect="always"
       xlink:href="#linearGradient6608"
       id="linearGradient18157"
       gradientUnits="userSpaceOnUse"
       gradientTransform="matrix(18.37969,0,0,-18.37969,181.68066,563.5083)"
       spreadMethod="pad"
       x1="0"
       y1="0"
       x2="1"
       y2="0" />
    <linearGradient
       id="linearGradient6570"
       spreadMethod="pad"
       gradientTransform="matrix(39.722794,0,0,-39.722794,182.23926,562.43408)"
       gradientUnits="userSpaceOnUse"
       y2="0"
       x2="1"
       y1="0"
       x1="0">
      <stop
         id="stop6572"
         offset="0"
         style="stop-opacity:1;stop-color:#ffffff" />
      <stop
         id="stop6574"
         offset="0.04984933"
         style="stop-opacity:1;stop-color:#ffffff" />
      <stop
         id="stop6576"
         offset="0.921951"
         style="stop-opacity:1;stop-color:#b9b9b9" />
      <stop
         id="stop6578"
         offset="0.92209046"
         style="stop-opacity:1;stop-color:#b9b9b9" />
      <stop
         id="stop6580"
         offset="1"
         style="stop-opacity:1;stop-color:#999999" />
    </linearGradient>
    <linearGradient
       id="linearGradient6544"
       spreadMethod="pad"
       gradientTransform="matrix(56.027832,0,0,-56.027832,170.42041,599.61133)"
       gradientUnits="userSpaceOnUse"
       y2="0"
       x2="1"
       y1="0"
       x1="0">
      <stop
         id="stop6546"
         offset="0"
         style="stop-opacity:1;stop-color:#ffffff" />
      <stop
         id="stop6548"
         offset="0.04984933"
         style="stop-opacity:1;stop-color:#ffffff" />
      <stop
         id="stop6550"
         offset="0.921951"
         style="stop-opacity:1;stop-color:#b9b9b9" />
      <stop
         id="stop6552"
         offset="0.92209046"
         style="stop-opacity:1;stop-color:#b9b9b9" />
      <stop
         id="stop6554"
         offset="1"
         style="stop-opacity:1;stop-color:#999999" />
    </linearGradient>
  </defs>
  <sodipodi:namedview
     id="base"
     pagecolor="#ffffff"
     bordercolor="#666666"
     borderopacity="0"
     inkscape:pageopacity="0"
     inkscape:pageshadow="2"
     inkscape:zoom="5.6568542"
     inkscape:cx="47.287045"
     inkscape:cy="23.726681"
     inkscape:document-units="px"
     inkscape:current-layer="layer1"
     showgrid="true"
     units="px"
     inkscape:window-width="978"
     inkscape:window-height="659"
     inkscape:window-x="32"
     inkscape:window-y="131"
     inkscape:window-maximized="0"
     showguides="true"
     inkscape:guide-bbox="true">
    <inkscape:grid
       type="xygrid"
       id="grid6550" />
    <sodipodi:guide
       position="30,50.000001"
       orientation="1,0"
       id="guide6552" />
  </sodipodi:namedview>
  <metadata
     id="metadata6153">
    <rdf:RDF>
      <cc:Work
         rdf:about="">
        <dc:format>image/svg+xml</dc:format>
        <dc:type
           rdf:resource="http://purl.org/dc/dcmitype/StillImage" />
        <dc:title></dc:title>
      </cc:Work>
    </rdf:RDF>
  </metadata>
  <g
     inkscape:label="Layer 1"
     inkscape:groupmode="layer"
     id="layer1"
     transform="translate(0,-992.3622)">
    <g
       id="g6532"
       transform="matrix(0.38372694,0,0,-0.38372694,-47.823806,1247.3535)">
      <g
         id="g6534">
        <g
           id="g6540">
          <g
             id="g6542">
            <path
               d="m 178.03,632.103 c 0.305,-0.228 -0.676,-1.316 -1.805,-3.25 l 0,0 c -0.28,0.098 -0.578,0.152 -0.89,0.152 l 0,0 c -1.491,0 -2.701,-1.209 -2.701,-2.701 l 0,0 c 0,-0.543 0.162,-1.048 0.436,-1.472 l 0,0 c -0.97,-0.408 -1.652,-1.369 -1.652,-2.489 l 0,0 c 0,-0.7 0.267,-1.339 0.702,-1.817 l 0,0 c -0.716,-0.486 -1.188,-1.308 -1.188,-2.241 l 0,0 c 0,-0.924 0.463,-1.739 1.171,-2.225 l 0,0 c -0.987,-0.402 -1.683,-1.371 -1.683,-2.502 l 0,0 c 0,-0.948 0.489,-1.78 1.228,-2.263 l 0,0 c -0.445,-0.48 -0.716,-1.124 -0.716,-1.83 l 0,0 c 0,-0.77 0.322,-1.464 0.837,-1.955 l 0,0 c -0.224,-0.393 -0.351,-0.847 -0.351,-1.331 l 0,0 c 0,-1.087 0.643,-2.024 1.569,-2.453 l 0,0 c -0.224,-0.393 -0.353,-0.848 -0.353,-1.333 l 0,0 c 0,-1.017 0.563,-1.902 1.395,-2.364 l 0,0 c -0.253,-0.409 -0.397,-0.891 -0.397,-1.408 l 0,0 c 0,-1.142 0.709,-2.118 1.71,-2.512 l 0,0 c -0.004,-0.063 -0.007,-0.125 -0.007,-0.189 l 0,0 c 0,-1.275 0.883,-2.342 2.071,-2.627 l 0,0 c -0.001,-0.024 -0.002,-0.048 -0.002,-0.073 l 0,0 c 0,-1.396 1.059,-2.545 2.416,-2.687 l 0,0 c 0.537,-0.756 1.114,-1.502 1.74,-2.236 l 0,0 c 7.381,-8.68 1.84,-20.865 2.287,-22.771 l 0,0 c 0.445,-1.907 3.674,-1.687 12.435,-1.931 l 0,0 c 8.762,-0.243 22.026,-0.121 25.311,2.313 l 0,0 c 3.285,2.433 4.745,6.083 4.137,9.247 l 0,0 c -0.609,3.164 -3.042,5.475 -3.286,7.059 l 0,0 c -0.243,1.581 1.461,8.396 -3.772,11.315 l 0,0 c -5.232,2.921 -16.914,10.357 -17.157,12.419 l 0,0 c -0.243,2.061 4.502,4.326 8.153,3.924 l 0,0 c 3.65,-0.401 7.544,-4.159 9.491,-3.924 l 0,0 c 1.947,0.236 2.068,2.285 3.407,2.478 l 0,0 c 1.339,0.192 2.069,2.057 1.218,3.071 l 0,0 c -0.853,1.016 -8.762,5.03 -7.546,5.639 l 0,0 c 0.576,0.287 2.272,-0.652 3.987,-1.593 l 0,0 c 1.908,-1.045 3.84,-2.09 4.288,-1.449 l 0,0 c 0.852,1.217 2.948,2.555 1.352,5.476 l 0,0 c -1.595,2.92 -1.472,6.449 -4.638,7.606 l 0,0 c -3.162,1.155 -16.074,3.345 -18.38,4.44 l 0,0 c -1.367,0.649 -3.719,0.614 -5.966,0.58 l 0,0 c -1.543,-0.024 -3.037,-0.048 -4.127,0.15 l 0,0 c -2.678,0.487 -10.1,2.759 -14.029,3.287 l 0,0 c -0.411,0.055 -0.771,0.081 -1.084,0.081 l 0,0 c -2.681,10e-4 -1.894,-1.903 0.389,-3.611"
               style="fill:url(#linearGradient6544);stroke:none"
               id="path6556"
               inkscape:connector-curvature="0" />
          </g>
        </g>
      </g>
    </g>
    <g
       id="g6558"
       transform="matrix(0.38372694,0,0,-0.38372694,-47.823806,1247.3535)">
      <g
         id="g6560">
        <g
           id="g6566">
          <g
             id="g6568">
            <path
               d="m 186.072,566.423 c -1.226,0 -2.225,-1 -2.225,-2.22 l 0,0 0,-3.537 c 0,-1.228 0.999,-2.221 2.225,-2.221 l 0,0 33.714,0 c 1.233,0 2.233,0.993 2.233,2.221 l 0,0 0,3.537 c 0,1.22 -1,2.22 -2.233,2.22 l 0,0 -33.714,0 z"
               style="fill:url(#linearGradient6570);stroke:none"
               id="path6582"
               inkscape:connector-curvature="0" />
          </g>
        </g>
      </g>
    </g>
    <g
       id="g6584"
       transform="matrix(0.38372694,0,0,-0.38372694,-47.823806,1247.3535)">
      <g
         id="g6586"
         clip-path="url(#clipPath6588)">
        <g
           id="g6592">
          <g
             id="g6594" />
          <g
             id="g6636">
            <g
               clip-path="url(#clipPath6596)"
               id="g6638"
               style="opacity:0.60000598">
              <g
                 id="g6640">
                <g
                   clip-path="url(#clipPath6600)"
                   id="g6642">
                  <g
                     id="g6644">
                    <g
                       id="g6646" />
                    <g
                       mask="url(#mask6616)"
                       id="g6648">
                      <g
                         id="g6650">
                        <path
                           d="m 183.846,560.594 0,3.609 c 0,1.22 1,2.22 2.227,2.22 l 22.03,0 c 0,0 -12.496,-0.468 -17.714,-2.252 -5.231,-1.778 -6.543,-3.577 -6.543,-3.577"
                           style="fill:url(#linearGradient18157);stroke:none"
                           id="path6652"
                           inkscape:connector-curvature="0" />
                      </g>
                    </g>
                  </g>
                </g>
              </g>
            </g>
          </g>
        </g>
      </g>
    </g>
    <g
       id="g6654"
       transform="matrix(0.38372694,0,0,-0.38372694,-47.823806,1247.3535)">
      <g
         id="g6656">
        <g
           id="g6662">
          <g
             id="g6664">
            <path
               d="m 183.489,559.66 c -1.422,0 -2.569,-1.151 -2.569,-2.558 l 0,0 0,-4.084 c 0,-1.413 1.147,-2.556 2.569,-2.556 l 0,0 38.881,0 c 1.428,0 2.576,1.143 2.576,2.556 l 0,0 0,4.084 c 0,1.407 -1.148,2.558 -2.576,2.558 l 0,0 -38.881,0 z"
               style="fill:url(#linearGradient6666);stroke:none"
               id="path6678"
               inkscape:connector-curvature="0" />
          </g>
        </g>
      </g>
    </g>
    <g
       id="g6680"
       transform="matrix(0.38372694,0,0,-0.38372694,-47.823806,1247.3535)">
      <g
         id="g6682"
         clip-path="url(#clipPath6684)">
        <g
           id="g6688">
          <g
             id="g6690" />
          <g
             id="g6732">
            <g
               clip-path="url(#clipPath6692)"
               id="g6734"
               style="opacity:0.60000598">
              <g
                 id="g6736">
                <g
                   clip-path="url(#clipPath6696)"
                   id="g6738">
                  <g
                     id="g6740">
                    <g
                       id="g6742" />
                    <g
                       mask="url(#mask6712)"
                       id="g6744">
                      <g
                         id="g6746">
                        <path
                           d="m 180.919,552.935 0,4.167 c 0,1.408 1.148,2.557 2.571,2.557 l 24.613,0 c 0,0 -13.618,-0.539 -19.641,-2.596 -6.031,-2.051 -7.543,-4.128 -7.543,-4.128"
                           style="fill:url(#linearGradient18159);stroke:none"
                           id="path6748"
                           inkscape:connector-curvature="0" />
                      </g>
                    </g>
                  </g>
                </g>
              </g>
            </g>
          </g>
        </g>
      </g>
    </g>
    <g
       id="g6750"
       transform="matrix(0.38372694,0,0,-0.38372694,-47.823806,1247.3535)">
      <g
         id="g6752">
        <g
           id="g6758">
          <g
             id="g6760">
            <path
               d="m 180.671,551.397 c -1.622,0 -2.939,-1.319 -2.939,-2.934 l 0,0 0,-4.674 c 0,-1.616 1.317,-2.928 2.939,-2.928 l 0,0 44.515,0 c 1.63,0 2.948,1.312 2.948,2.928 l 0,0 0,4.674 c 0,1.615 -1.318,2.934 -2.948,2.934 l 0,0 -44.515,0 z"
               style="fill:url(#linearGradient6762);stroke:none"
               id="path6774"
               inkscape:connector-curvature="0" />
          </g>
        </g>
      </g>
    </g>
    <g
       id="g6776"
       transform="matrix(0.38372694,0,0,-0.38372694,-47.823806,1247.3535)">
      <g
         id="g6778"
         clip-path="url(#clipPath6780)">
        <g
           id="g6784">
          <g
             id="g6786" />
          <g
             id="g6828">
            <g
               clip-path="url(#clipPath6788)"
               id="g6830"
               style="opacity:0.60000598">
              <g
                 id="g6832">
                <g
                   clip-path="url(#clipPath6792)"
                   id="g6834">
                  <g
                     id="g6836">
                    <g
                       id="g6838" />
                    <g
                       mask="url(#mask6808)"
                       id="g6840">
                      <g
                         id="g6842">
                        <path
                           d="m 177.732,543.698 0,4.765 c 0,1.615 1.316,2.933 2.939,2.933 l 30.547,0 c 0,0 -17.954,-0.624 -24.853,-2.973 -6.9,-2.349 -8.633,-4.725 -8.633,-4.725"
                           style="fill:url(#linearGradient18161);stroke:none"
                           id="path6844"
                           inkscape:connector-curvature="0" />
                      </g>
                    </g>
                  </g>
                </g>
              </g>
            </g>
          </g>
        </g>
      </g>
    </g>
    <g
       id="g6846"
       transform="matrix(0.38372694,0,0,-0.38372694,-47.823806,1247.3535)">
      <g
         id="g6848">
        <g
           id="g6854">
          <g
             id="g6856">
            <path
               d="m 176.855,543.698 c -1.908,0 -3.447,-1.544 -3.447,-3.439 l 0,0 0,-15.968 c 0,-1.896 1.539,-3.434 3.447,-3.434 l 0,0 52.155,0 c 1.901,0 3.446,1.538 3.446,3.434 l 0,0 0,15.968 c 0,1.895 -1.545,3.439 -3.446,3.439 l 0,0 -52.155,0 z"
               style="fill:url(#linearGradient6858);stroke:none"
               id="path6870"
               inkscape:connector-curvature="0" />
          </g>
        </g>
      </g>
    </g>
  </g>
</svg>
